/* XPM */
static char *result[] = {
/* columns rows colors chars-per-pixel */
"48 48 36 1 ",
"  c black",
". c #010000",
"X c #000100",
"o c #000001",
"O c #38002C",
"+ c #39002C",
"@ c #38002D",
"# c #222A5C",
"$ c #232A5C",
"% c #222B5C",
"& c #222A5D",
"* c #D22E1E",
"= c #D22F1E",
"- c #D32F1E",
"; c #D22F1F",
": c #800C52",
"> c #800C53",
", c #810C53",
"< c #800D53",
"1 c #AB1F64",
"2 c #AB1E65",
"3 c #AA1F65",
"4 c #AB1F65",
"5 c #FF8042",
"6 c #FF8142",
"7 c #CCAC68",
"8 c #FEDA45",
"9 c #FFDA45",
"0 c #663B92",
"q c #663A93",
"w c #663B93",
"e c #673B93",
"r c #FFDBA4",
"t c #FEDBA5",
"y c #FFDBA5",
"u c None",
/* pixels */
"uuuuuuuuuuuuuuuuuuuuuuuuuuuuuuuuuuuuuuuuuuuuuuuu",
"uuuuuuuuuuuuuuuuuuuuuuuuuuuuuuuuuuuuuuuuuuuuuuuu",
"uuuuuuuuuuuuuuuuuuuuuuuuuuuuuuuuuuuuuuuuuuuuuuuu",
"uuuuuuuuuuuuuuuuuuuuuuuuuuuuuuuuuuuuuuuuuuuuuuuu",
"uuuuuuuuuuuuuuuuuuuuuuuuuuuuuuuuuuuuuuuuuuuuuuuu",
"uuuuuuuuuuuuuuuuuuu   u      uuuuuuuuuuuuuuuuuuu",
"uuuuuuuuuuuuuuuuuuu           uuuuuuuuuuuuuuuuuu",
"uuuuuuuuuuuuuuuuuuuX           uuuuuuuuuuuuuuuuu",
"uuuuuuuuuuuuuuuuuuuu    wwww   uuuuuuuuuuuuuuuuu",
"uuuuuuuuuuuuuuuuuuuu   wwwww   uuuuuuuuuuuuuuuuu",
"uuuuuuuuuuuuuuuuuuuu   wwwww . uuu  uuuuuuuuuuuu",
"uuuuuuuuuuuuuuuuuuu    ===44    uu  uuuuuuuuuuuu",
"uuuuuuuuuuuuuuuuuuu    ===44    uuuuuuuuuuuuuuuu",
"uuuuuuuuuuuuuuuuuuu . wewww0q   uuuuuuuuuuuuuuuu",
"uuuuuuuuuuuuuuuuuuu    yyyyy     uuuuuuuuuuuuuuu",
"uuuuuuuuuuuuuuuuuu   o yryyr     uuuuuuuuuuuuuuu",
"uuuuuuoX     uuuuu     yyyyy   X uuuuu       uuu",
"uuuuu.o         uu   ===yyyy44   uX o  o      uu",
"uuuuu       o        ====yyy4                 uu",
"uuuuu   tryw X       ====yyy4          #777   uu",
"uuuuu   yyyww=-    X o=-=www4      >:>##777   uu",
"uuuuu.    99w=====   ====www4.  >>>>>>$156    uu",
"uuuuuu    99===4=======-==9924>>>>>>O24466   uuu",
"uuuuuuu   99========-=====894444>>O4424466   uuu",
"uuuuuuu   <9======4=-====q994444444444446>   uuu",
"uuuuuuu   OOOO>=*======-www0w44244444>OOOO   uuu",
"uuuuuuu  o 44O+O>,===;wwwwwwwwO441>OOOO42    uuu",
"uuuuuuuu   44>>>OOOOOOqewwwwqw@OOOOO>>>44.  uuuu",
"uuuuuuuu o 444>>>>>>OOwwwwwwwwOOO@>>>>>44   uuuu",
"uuuuuuuu o  44>>>>>>>OwewwwwwwOO>:>>>>44    uuuu",
"uuuuuuuuu   424>>>>>>Owe0wwwqwO<>>>>>244   uuuuu",
"uuuuuuuuu    244>>>>>OwwwwewwwO>>>>>444    uuuuu",
"uuuuuuu uu    344>>>>Owwwww0qwO>>>>444   .uuuuuu",
"uuuuuuuuuuu    444>>OOwwwwwwwwOO>>234    uuuuuuu",
"uuuuuuuuuuuu  . 444>OwwewwwwwwOO>444    uu  uuuu",
"uuuuuuuuuuuuu    444>wwww<>####<444    uuu  uuuu",
"uuuuuuuuuuuuuu     4>wwww<>####>3     uuuuuuuuuu",
"uuuuuuuuuuuuuuu      www0>>####      uuuuuuuuuuu",
"uuuuuuuuuuuuuuuu .   www0  ###&    .uuuuuuuuuuuu",
"uuuuuuuuuuuuuuuuu   wwww   ##$#   uuuuuuuuuuuuuu",
"uuuuuuuuuuuuuuuuu   wwww   ##$#   uuuuuuuuuuuuuu",
"uuuuuuuuuuuuuuuu  o ewww    ##&   uuuuuuuuuuuuuu",
"uuuuuuuuuuuuuuuu    w0q     #$#   uuuuuuuuuuuuuu",
"uuuuuuuuuuuuuuuuX   www     ##&   uuuuuuuuuuuuuu",
"uuuuuuuuuuuuuuuuu   www o   ###    uuuuuuuuuuuuu",
"uuuuuuuuuuuuuuuuu   ##%     OOOO   uuuuuuuuuuuuu",
"uuuuuuuuuuuuuuuuu  X$&#  X  OOOO   uuuuuuuuuuuuu",
"uuuuuuuuuuuuuuuuu   ===.  . 4444   uuuuuuuuuuuuu"
};
