/* XPM */
static char *result[] = {
/* columns rows colors chars-per-pixel */
"48 48 28 1 ",
"  c black",
". c #010000",
"X c #000100",
"o c #000001",
"O c #38002C",
"+ c #222A5C",
"@ c #232A5C",
"# c #D22E1E",
"$ c #D22F1E",
"% c #D32F1E",
"& c #D22F1F",
"* c #800C53",
"= c #AB1F64",
"- c #AB1E65",
"; c #AA1F65",
": c #AB1F65",
"> c #FF8142",
", c #CCAC68",
"< c #FFDA44",
"1 c #FFDA45",
"2 c #FFDB45",
"3 c #663B92",
"4 c #663A93",
"5 c #663B93",
"6 c #673B93",
"7 c #FEDBA5",
"8 c #FFDBA5",
"9 c None",
/* pixels */
"999999999999999999999999999999999999999999999999",
"999999999999999999999999999999999999999999999999",
"999999999999999999999999999999999999999999999999",
"99999999999999999 999999999999999999999999999999",
"999999999999999999999999999999999999999999999999",
"999999999999999999999999999999999999999999999999",
"9999999999999999999999      99999999999999999999",
"999999999999999999999  .    X9999999999999999999",
"99999999999999999999   5555oX9999999999999999999",
"99999999999999999999  55555  9999999999999999999",
"99999999999999999999  55555  9999999999999999999",
"9999999999999999999X  $$&::   999999999999999999",
"9999999999999999999   $$$::   999999999999999999",
"9999999999999999999  5465553  999999999999999999",
"9999999999999999999X  88887o  999o 9999999999999",
"999999999999999999    88888    99  9999999999999",
"999999999999999999    87888    99999999999999999",
"999999999999999999  $&$$888:-  99999999999999999",
"999999999999999999 X$&$$888=:. 99999999999999999",
"999999999999999999   $$$888=   99999999999999999",
"999999999999999999   &$$355:  999999999999999999",
"99999999999999999   $$$$555:   99999999999999999",
"99999999999999999  $$$$$$11::  99999999999999999",
"999999999  99999   $$$$%$21::  99999999999999999",
"999999999  9999   $$$$$$511::   9999999999999999",
"99999999999999   $$$$$#$555::*   999999999999999",
"999999999999    $$$$$$$$556::**    9999999999999",
"99999999999    5$$$  $#$555::**+   .999999999999",
"9999999999   855$$   $#$555::**++,   99999999999",
"9999999999  8885$. X$&$$556:::*+,,, o99999999999",
"9999999999  888 X   $$$5555::::-,,,. 99999999999",
"9999999999   1$    $$$$65455::=::>   99999999999",
"99999999999  2$$  $$$$$53553::::>>  999999999999",
"99999999999  11$$$$$$$563555::::>>  999999999999",
"99999999999 o 1<$$$$$$5655555:=>>o  999999999999",
"999999999999   111$$$556**@++;:>>  9999999999999",
"9999999999999    1116555**++++>>.  9999999999999",
"99999999999999      5555**@+++    99999999999999",
"9999999999999999    5545**+++@+  999999999999999",
"999999999999999999  5555 X ++++X 99  99999999999",
"999999999999999999  5555 X ++++  99  99999999999",
"999999999999999999  535    ++++  999999999999999",
"999999999999999999o 554   . +++  999999999999999",
"999999999999999999  555  9  +++  999999999999999",
"999999999999999999  555  9  +++   99999999999999",
"9999999999999 9999  +++  9 oOOOO  99999999999999",
"999999999999999999  +++  9  OOOO  99999999999999",
"999999999999999999  $$$  9  ::::  99999999999999"
};
