/* XPM */
static char *result[] = {
/* columns rows colors chars-per-pixel */
"48 48 35 1 ",
"  c black",
". c #010000",
"X c #000100",
"o c #000001",
"O c #38002C",
"+ c #39002C",
"@ c #38012C",
"# c #222A5C",
"$ c #232A5C",
"% c #222B5C",
"& c #222A5D",
"* c #D22E1E",
"= c #D22F1E",
"- c #D22F1F",
"; c #800C52",
": c #800C53",
"> c #810C53",
", c #AB1F64",
"< c #AB1E65",
"1 c #AA1F65",
"2 c #AB1F65",
"3 c #FF8042",
"4 c #FF8142",
"5 c #CCAC68",
"6 c #FFDA44",
"7 c #FFDA45",
"8 c #663B92",
"9 c #663A93",
"0 c #663B93",
"q c #673B93",
"w c #FFDBA4",
"e c #FFDAA5",
"r c #FEDBA5",
"t c #FFDBA5",
"y c None",
/* pixels */
"yyyyyyyyyyyyyyyyyyyyyyyyyyyyyyyyyyyyyyyyyyyyyyyy",
"yyyyyyyyyyyyyyyyyyyyyyyyyyyyyyyyyyyyyyyyyyyyyyyy",
"yyyyyyyyyyyyyyyyyyyyyyyyyyyyyyyyyyyyyyyyyyyyyyyy",
"yyyyyyyyyyyyyyyyyyyyyyyyyyyyyyyyyyyyyyyyyyyyyyyy",
"yyyyyyyyyyyyyyyyyyyyyyyyyyyyyyyyyyyyyyyyyyyyyyyy",
"yyyyyyyyyyyyyyyyyyyyyy      yyyyyyyyyyyyyyyyyyyy",
"yyyyyyyyyyyyyyyyyyyyy        yyyyyyyyyyyyyyyyyyy",
"yyyyyyyyyyyyyyyyyyy .    X    yyyyyyyyyyyyyyyyyy",
"yyyyyyyyyyyyyyyyyyy    0000   yyyyyyyyyyyyyyyyyy",
"yyyyyyyyyyyyyyyyyyy  o00000   yyyyyyyyyyyyyyyyyy",
"yyyyyyyyyyyyyyyyyyy   00000   yyyyyyyyyyyyyyyyyy",
"yyyyyyyyyyyyyyyyyy    ===22   oyyyyyyyyyyyyyyyyy",
"yyyyyyyyyyyyyyyyyy    ===22      yyyyyyyyyyyyyyy",
"yyyyyyyyyy yyyyyyy   0008000     yyyyyyyyyyyyyyy",
"yyyyyyyyyyyyyyyyyy  . ttwtt X.   yyyyyyyyyyyyyyy",
"yyyyyyyyyyyyyyyyy o  ottttto    yyyyyyyyyyyyyyyy",
"yyyyy o     yyyyy.    ttttto    yyyyy       yyyy",
"yyyyX          yy   ===tter22   y X  X       yyy",
"yyyy          .  .  ==*=ttt,   X             yyy",
"yyyyX ottt9 o       ====ttt2          #555o  yyy",
"yyyy   ttt0q==       ===0002      :::##555   yyy",
"yyyy     770=====   ====0002   :::::;#244    yyy",
"yyyyy    67===2===-======7722::::::O22244   yyyy",
"yyyyyyo  77==============772222::O2222243 o yyyy",
"yyyyyyo  :7======1======077,222222222224: o yyy ",
"yyyyyyoX OO+O:=========q000022222222:@OO@   yyyy",
"yyyyyy   o22OOO::====89000000O,22;OOOO22  o yyyy",
"yyyyyyy   22:::OOOOOO00000000OOOOOO:;:22   yyyyy",
"yyyyyyy   222::::::OO00000009OOOO:::::22 . yyyyy",
"yyyyyyy  o 22:::::::O00000000OO::::::22  . yyyyy",
"yyyyyyyy.  222::::;:O00000000O::>;::222   yyyyyy",
"yyyyyyyy o .222:::::O00000009O:::;:222    yyyyyy",
"yyyyyyyy     <22::::O00000009O;:::22,    yyyyyyy",
"yyyyyyyy.     222:;OO00000000OO::222    yyyyyyyy",
"yyyyyyyyyyy    222:O000q00000OO:222     yyyyyyyy",
"yyyyyyyyyyyy  . 222:0000::###$:222   X  yyyyyyyy",
"yyyyyyyyyyyyy     2:0000::#&##:2     X  yyyyyyyy",
"yyyyyyyyyyyyyy o   X0000::####    X yyyyyyyyyyyy",
"yyyyyyyyyyyyyyy   o 0000oX####  .  yyyyyyyyyyyyy",
"yyyyyyyyyyyyyyyy   0000   ####   yyyyyyyyyyyyyyy",
"yyyyyyyyyyyyyyyy   0000.  ####   yyyyyyyyyyyyyyy",
"yyyyyyyyyyyyyyyy   0000    ###   yyyyyyyyyyyyyyy",
"yyyyyyyyyyyyyyyy   000     ###   yyyyyyyyyyyyyyy",
"yyyyyyyyyyyyyyyy   008   X ###   yyyyyyyyyyyyyyy",
"yyyyyyyyyyyyyyyy   000     &#$    yyyyyyyyyyyyyy",
"yyyyyyyyyyyyyyyy   ###     OOOOX.oyyyyyyyyyyyyyy",
"yyyyyyyyyyyyyyyy   %##     OOOO   yyyyyyyyyyyyyy",
"yyyyyyyyyyyyyyyy   ===     2222  oyyyyyyyyyyyyyy"
};
