/* XPM */
static char *result[] = {
/* columns rows colors chars-per-pixel */
"48 48 33 1 ",
"  c black",
". c #010000",
"X c #000100",
"o c #000001",
"O c #38002C",
"+ c #222A5C",
"@ c #232A5C",
"# c #222B5C",
"$ c #222A5D",
"% c #D22E1E",
"& c #D22F1E",
"* c #D32F1E",
"= c #D22F1F",
"- c #800C52",
"; c #800C53",
": c #810C53",
"> c #800D53",
", c #AB1E65",
"< c #AA1F65",
"1 c #AB1F65",
"2 c #FF8042",
"3 c #FF8142",
"4 c #CCAC68",
"5 c #FEDA45",
"6 c #FFDA45",
"7 c #663B92",
"8 c #663A93",
"9 c #663B93",
"0 c #673B93",
"q c #FFDAA5",
"w c #FEDBA5",
"e c #FFDBA5",
"r c None",
/* pixels */
"rrrrrrrrrrrrrrrrrrrrrrrrrrrrrrrrrrrrrrrrrrrrrrrr",
"rrrrrrrrrrrrrrrrrrrrrrrrrrrrrrrrrrrrrrrrrrrrrrrr",
"rrrrrrrrrrrrrrrrrrrrrrrrrrrrrrrrrrrrrrrrrrrrrrrr",
"rrrrrrrrrrrrrrrrrrrrrrrrrrrrrrrrrrrrrrrrrrrrrrrr",
"rrrrrrrrrrrrrrrrrrrrrrrrrrrrrrrrrrrrrrrrrrrrrrrr",
"rrrrrrrrrrrrrrrrrrrrrrrrrrrrrrrrrrrrrrrrrrrrrrrr",
"rrrrrrrrrrrrrrrrrrrrrrr o    rrrrrrrrrrrrrrrrrrr",
"rrrrrrrrrrrrrrrrrrrrrr        rrrrrrrrrrrrrrrrrr",
"rrrrrrrrrrrrrrrrrrrrr   9999  rrrrrrrrrrrrrrrrrr",
"rrrrrrrrrrrrrrrrrrrrroX99999 .rrrrrrrrrrrrrrrrrr",
"rrrrrrrrrrrrrrrrrrrrr  99909X rrrrrrrrrrrrrrrrrr",
"rrrrrrrrrrrrrrrrrrrr   &&&<1   rrrrrrrrrrrrrrrrr",
"rrrrrrrrrrrrrrrrrrrr   &&&11X  rrrrrrrrrrrrrrrrr",
"rrrrrrrrrrrrrrrrrrrr  8999979  rrrrrrrrrrrrrrrrr",
"rrrrrrrrrrrrrrrrrrrr   eeewe   rrrrrrrrrrrrrrrrr",
"rrrrrrrrrrrrrrrrrrr    weeee    rrrrrrrrrrrrrrrr",
"rrrrrrrrrrrrrrrrrrr  oXeeeeeX   rrrrrrrrrrrrrrrr",
"rrrrrrrrrrrrrrrrrrr  &&&&eee,1o rrrrrrrrrrrrrrrr",
"rrrrrrrrrrrrrrrrrrr  &&&&qee11  rrrrrrrrrrrrrrrr",
"rrrrrrrrrrrrrrrrrrr   &*&qee1   rrrrrrrrrrrrrrrr",
"rrrrrrrrrrrrrrrrrrr   %&&8991  rrrrrrrrrrrrrrrrr",
"rrrrrrrrrrrrrrrrrr   &&&&9991   rrrrrrrrrrrrrrrr",
"rrrrrrrrrrrrrrrrrr  &&&&&&6611  rrrrrrrrrrrrrrrr",
"rrrrrrrrrrrrr  rr   &&&&&&6611  rrrrrrrrrrrrrrrr",
"rrrrrrrrrrrrr  r   &&=&&&96611   rrrrrrrrrrrrrrr",
"rrrrrrrrrrrrrrro  ;&&&&&&99911;   rrrrrrrrrrrrrr",
"rrrrrrrrrrrrrr   ;&&&&&&=99911-;   rrrrrrrrrrrrr",
"rrrrrrrrrrrrr   ;;&&&-%&=90911;>;   rrrrrrrrrrrr",
"rrrrrrrrrrrr  .;;&&&;;&&&99911;;;;   rrrrrrrrrrr",
"rrrrrrrrrrrr  :;;&&&;&&&&9091<;;;;;  rrrrrrrrrrr",
"rrrrrrrrrrrr  ;;;&=;:&&&&90911+#:;;  rrrrrrrrrrr",
"rrrrrrrrrrrr  ;;999;;&&&999911$+@;;  rrrrrrrrrrr",
"rrrrrrrrrrrr  ;;ee;;&&&&999911144;>  rrrrrrrrrrr",
"rrrrrrrrrrrr   ;ee;&&&&&989991144- .   rrrrrrrrr",
"rrrrrrrrrrrrr  ;ee&&&&%9999991144;X r  rrrrrrrrr",
"rrrrrrrrrrrrr   656&&&&99>:+9111:   rrrrrrrrrrrr",
"rrrrrrrrrrrrrr.  6666&999;;++132   rrrrrrrrrrrrr",
"rrrrrrrrrrrrrrr   6669999;;++333  rrrrrrrrrrrrrr",
"rrrrrrrrrrrrrrrr     9999;;++33  rrrrrrrrrrrrrrr",
"rrrrrrrrrrrrrrrrr oX9799  .++++  rrrrrrrrrrrrrrr",
"rrrrrrrrrrrrrrrrrr  9999   ++++X rrrrrrrrrrrrrrr",
"rrrrrrrrrrrrrrrrrr  9999   o+@+  rrrrrrrrrrrrrrr",
"rrrrrrrrrrrrrrrrrr  999   . +++  rrrrrrrrrrrrrrr",
"rrrrrrrrrrrrrrrrrr  999  r  +++  rrrrrrrrrrrrrrr",
"rrrrrrrrrrrrrrrrrr  998  r  +++  orrrrrrrrrrrrrr",
"rrrrrrrrrrrrrrrrrr  +++.or. OOOO  rrrrrrrrrrrrrr",
"rrrrrrrrrrrrrrrrrr  +++  r  OOOO orrrrrrrrrrrrrr",
"rrrrrrrrrrrrrrrrrr  &&%  r  1111  rrrrrrrrrrrrrr"
};
