/* XPM */
static char *result[] = {
/* columns rows colors chars-per-pixel */
"48 48 31 1 ",
"  c black",
". c #010000",
"X c #000100",
"o c #000001",
"O c #38002C",
"+ c #222A5C",
"@ c #222B5C",
"# c #222A5D",
"$ c #D22E1E",
"% c #D22F1E",
"& c #D32F1E",
"* c #D22F1F",
"= c #800C53",
"- c #810C53",
"; c #AB1F64",
": c #AB1E65",
"> c #AA1F65",
", c #AB1F65",
"< c #FF8042",
"1 c #FF8142",
"2 c #CCAC68",
"3 c #FEDA45",
"4 c #FFDA45",
"5 c #663B92",
"6 c #663A93",
"7 c #663B93",
"8 c #673B93",
"9 c #FFDBA4",
"0 c #FEDBA5",
"q c #FFDBA5",
"w c None",
/* pixels */
"wwwwwwwwwwwwwwwwwwwwwwwwwwwwwwwwwwwwwwwwwwwwwwww",
"wwwwwwwwwwwwwwwwwwwwwwwwwwwwwwwwwwwwwwwwwwwwwwww",
"wwwwwwwwwwwwwwwwwwwwwwwwwwwwwwwwwwwwwwwwwwwwwwww",
"wwwwwwwwwwwwwwwwwwwwwwwwwwwwwwwwwwwwwwwwwwwwwwww",
"wwwwwwwwwwwwwwwwwwwwwwwwwwwwwwwwwwwwwwwwwwwwwwww",
"wwwwwwwwwwwwwwwwwwwwwwwwwwwwwwwwwwwwwwwwwwwwwwww",
"wwwwwwwwwwwwwwwwwwwwwwwwwwwwwwwwwwwwwwwwwwwwwwww",
"wwwwwwwwwwwwwwwwwwwww    wwwwwwwwwwwwwwwwwwwwwww",
"wwwwwwwwwwwwwwwwwwww 7777 wwwwwwwwwwwwwwwwwwwwww",
"wwwwwwwwwwwwwwwwwww 87777Xwwwwwwwwwwwwwwwwwwwwww",
"wwwwwwwwwwwwwwwwwww 77777 wwwwwwwwwwwwwwwwwwwwww",
"wwwwwwwwwwwwwwwwwww %%%,, wwwwwwwwwwwwwwwwwwwwww",
"wwwwwwwwwwwwwwwwww  %%$,,X wwwwwwwwwwwwwwwwwwwww",
"wwwwwwwwwwwwwwwwww 7777777 wwwwwwwwwwwwwwwwwwwww",
"wwwwwwwwwwwwwwwwwww qqqqqXwwwwwwwwwwwwwwwwwwwwww",
"wwwwwwwwwwwwwwwwwww qqqqq wwwwwwwwwwwwwwwwwwwwww",
"wwwwwwwwwwwwwwwww   qqqqq   Xwwwwwwwwwwwwwwwwwww",
"wwwwwwwwwwwwwwwww %%%%%qq,,,Xwwwwwwwwwwwwwwwwwww",
"wwwwwwwwwwwwwwwwww %%%%q9,, wwwwwwwwwwwwwwwwwwww",
"wwwwwwwwwwwwwwwwww %%%qqq,, wwwwwwwwwwwwwwwwwwww",
"wwwwwwwwwwwwwwwwww %%%787, wwwwwwwwwwwwwwwwwwwww",
"wwwwwwwwwwwwwwwww %%%%777, wwwwwwwwwwwwwwwwwwwww",
"wwwwwwwwwwwwwwwww %%%*%44,, wwwwwwwwwwwwwwwwwwww",
"wwwwwwwwwwwwwwwww %$%%%44,,owwwwwwwwwwwwwwwwwwww",
"wwwwwwwwwwwwwwwww %%%%744,> wwwwwwwwwwwwwwwwwwww",
"wwwwwwwwwwwwwwww %*%&%777,, wwwwwwwwwwwwwwwwwwww",
"wwwwwwwwwwwwwwwwX%%%%%777,,= wwwwwwwwwwwwwwwwwww",
"wwwwwwwwwwwwwwww %%%%%777:,= wwwwwwwwwwwwwwwwwww",
"wwwwwwwwwwwwwwww %%%%%777,,= wwwwwwwwwwwwwwwwwww",
"wwwwwwwwwwwwwwww %%%%%777,,= wwwwwwwwwwwwwwwwwww",
"wwwwwwwwwwwwwwww &%%%%777,>+@ wwwwwwwwwwwwwwwwww",
"wwwwwwwwwwwwwwww 77%%%777:,++ wwwwwwwwwwwwwwwwww",
"wwwwwwwwwwwwwwwwXqq%%%787:,22.wwwwwwwwwwwwwwwwww",
"wwwwwwwwwwwwwwww 0q%%%777,,22 wwwwwwwwwwwwwwwwww",
"wwwwwwwwwwwwwwwwX0q%%*677,,22 wwwwwwwwwwwwwwwwww",
"wwwwwwwwwwwwwwww  %%%%==+,>;  wwwwwwwwwwwwwwwwww",
"wwwwwwwwwwwwwwwww %%%%=-+,,; wwwwwwwwwwwwwwwwwww",
"wwwwwwwwwwwwwwwww.4444==+<11 wwwwwwwwwwwwwwwwwww",
"wwwwwwwwwwwwwwwww 4434==+1111 wwwwwwwwwwwwwwwwww",
"wwwwwwwwwwwwwwwww 7777   ++++.wwwwwwwwwwwwwwwwww",
"wwwwwwwwwwwwwwwww 7775 w @+++ wwwwwwwwwwwwwwwwww",
"wwwwwwwwwwwwwwwww 777 wwo++++ wwwwwwwwwwwwwwwwww",
"wwwwwwwwwwwwwwwww 777 www +#+.wwwwwwwwwwwwwwwwww",
"wwwwwwwwwwwwwwwww 777 www +++ wwwwwwwwwwwwwwwwww",
"wwwwwwwwwwwwwwwww 577 www +++ wwwwwwwwwwwwwwwwww",
"wwwwwwwwwwwwwwwww +++ www OOOOowwwwwwwwwwwwwwwww",
"wwwwwwwwwwwwwwwww +++ www OOOOowwwwwwwwwwwwwwwww",
"wwwwwwwwwwwwwwwww.*%% www ,,,, wwwwwwwwwwwwwwwww"
};
