/* XPM */
static char *result[] = {
/* columns rows colors chars-per-pixel */
"48 48 36 1 ",
"  c black",
". c #010000",
"X c #000100",
"o c #000001",
"O c #38002C",
"+ c #39002C",
"@ c #38012C",
"# c #38002D",
"$ c #222A5C",
"% c #232A5C",
"& c #222B5C",
"* c #222A5D",
"= c #D22E1E",
"- c #D22F1E",
"; c #D32F1E",
": c #D22F1F",
"> c #800C52",
", c #800C53",
"< c #810C53",
"1 c #800D53",
"2 c #AB1F64",
"3 c #AB1E65",
"4 c #AA1F65",
"5 c #AB1F65",
"6 c #FE8142",
"7 c #FF8142",
"8 c #CCAC68",
"9 c #FEDA45",
"0 c #FFDA45",
"q c #663B92",
"w c #663A93",
"e c #663B93",
"r c #673B93",
"t c #FFDAA5",
"y c #FFDBA5",
"u c None",
/* pixels */
"uuuuuuuuuuuuuuuuuuuuuuuuuuuuuuuuuuuuuuuuuuuuuuuu",
"uuuuuuuuuuuuuuuuuuuuuuuuuuuuuuuuuuuuuuuuuuuuuuuu",
"uuuuuuuuuuuuuuuuuuuuuuuuuuuuuuuuuuuuuuuuuuuuuuuu",
"uuuuuuuuuuuuuuuuuuuuuuuuuuuuuuuuuuuuuuuuuuuuuuuu",
"uuuuuuuuuuuuuuuuuuuuuuuuuuuuuuuuuuuuuuuuuuuuuuuu",
"uuuuuuuuuuuuuuuuuu Xuuu      uuuuuuuuuuuuuuuuuuu",
"uuuuuuuuuuuuuuuuuu  uu     o  uuuuuuuuuuuuuuuuuu",
"uuuuuuuuuuuuuuuuuuuuu          uuuuuuuuuuuuuuuuu",
"uuuuuuuuuuuuuuuuuuuu.   eeeq   uuuuuuuuuuuuuuuuu",
"uuuuuuuuuuuuuuuuuuuu   eeeeeX  uuuuu uuuuuuuuuuu",
"uuuuuuuuuuuuuuuuuuuu   eeeee   uuuuuuuuuuuuuuuuu",
"uuuuuuuuuuuuuuuuuuu .  --=52   Xuuuuuuuuuuuuuuuu",
"uuuuuuuuuuuuuuuuuuu    ---55    uuuuuuuuuuuuuuuu",
"uuuuuuuuuuuuuuuuuuu   eeeeeew o uuuuuuuuuuuuuuuu",
"uuuuuuuuuuuuuuuuuuu . Xyyyyy     o uuuuuuuuuuuuu",
"uuuuuuuuuuuuuuuuuu X   yyyyy       uuuuuuuuuuuuu",
"uuuuuuuuuuuuuuuuuu     yytyyX    o uuuuuuuuuuuuu",
"uuuuuuo   X  X uuu   ---yyyy55   uuuu        uuu",
"uuuuu           X    --;-yyy5        X    o   uu",
"uuuuu   .            ----yyy5       o        ouu",
"uuuuu   yyyee-        ---eee5         %$888   uu",
"uuuuu   yytee-----   ----eee5 oX,,,,,,$$888   uu",
"uuuuu     00e-;-----------0055,,,,,,,,$576    uu",
"uuuuuu X  00-=52----;-----005555,>OO555277   uuu",
"uuuuuuu   00-=---52--:---e0055554555555577oX uuu",
"uuuuuuu   ,9-----;------eeeee455555555457,   uuu",
"uuuuuuu   O,,O,,------eeeereeeO5555,,OO,,+   uuu",
"uuuuuuu   X551OO@OOOOOeeeeeqeeOOOOOOOO,53   .uuu",
"uuuuuuuu.  55,,,,,,,+OeeeeeeeeOOOO,,,,,55.  uuuu",
"uuuuuuuu  X55,,,,,>1,#eeeeeeeeOO,>,,>,,25  Xuuuu",
"uuuuuuuu    53<,,,,,<#ereeeeeeO,,,,,,,55    uuuu",
"uuuuuuuuu   555,1,,,,#eeeeeeweO1,,,,,555 . uuuuu",
"uuuuuuuuu    555,,>,,Oweeeeeee#,<,,,555o   uuuuu",
"uuuuuuuuuu    555,,,OOeeeeeeeeOO,,,555    uuuuuu",
"uuuuuuuuuuu    555,,OeeeeeeeeeOO,,555    uuuuu u",
"uuuuuuuuuuuu    5555,eeee,,$$$$,5555  . uuuuuuuu",
"uuuuuuuuuuuuu .   25,eere,,$$$$,42     uuuuuuuuu",
"uuuuuuuuuuuuuu      .eeee,,*$$$       uuuuuuuuuu",
"uuuuuuuuuuuuuuu   o  eeee  $$$$      uuuuuuuuuuu",
"uuuuuuuuuuuuuuuuu.  eqwe   $$$$ .   uuuuuuuuuuuu",
"uuuuuuuuuuuuuuuuu   eeer   $$$$ .   uuuuuuuuuuuu",
"uuuuuuuuuuuuuuuuu   eeee X o$$$   uuuuuuuuuuuuuu",
"uuuuuuuuuuuuuuuuu o eee     $$$   uuuuuuuuuuuuuu",
"uuuuuuuuuuuuuu. u   ree o  o&$$ .ouuuuuuuuuuuuuu",
"uuuuuuuuuuuuuu  u   eee o   $$$    uuuuuuuuuuuuu",
"uuuuuuuuuuuuuuuuu   $$$     OOOO   uuuuuuuuuuuuu",
"uuuuuuuuuuuuuuuuu o $$$     OO#O   uuuuuuuuuuuuu",
"uuuuuuuuuuuuuuuuu   ---     5555   uuuuuuuuuuuuu"
};
