/* XPM */
static char *result[] = {
/* columns rows colors chars-per-pixel */
"48 48 8 1 ",
"  c #151327",
". c #863F2C",
"X c #BA7252",
"o c #BA7C50",
"O c #E58D4F",
"+ c #E1A174",
"@ c #F6CDA1",
"# c None",
/* pixels */
"################################################",
"################################################",
"################################################",
"################################################",
"#######################   ######################",
"###################### .X. ######    ###########",
"######################           @@@@ ##########",
"################       @@@@@@@@@@++++ ##########",
"##############  @@@@@@@++++++++++++++ ##########",
"############  @@+++++++++++++++++++++@ #########",
"##########  @@++++++++++++++++++++++++ #########",
"######### o@+++++++++++++++++++++++++o #########",
"######### oo+++++++++++++++++++++ooooo #########",
"##########  ooo++++++++ooooooooooo    ##########",
"############   ooooooooo          ##############",
"###############            #####################",
"######################  .. #####################",
"#############                     ##############",
"############ @@@@@@@@@@@@@@@@@@@@@  ############",
"############ +++++++++++++++++++++@@  ##########",
"############ +++++++++++++++++++++++@o #########",
"############ ++++++++++++++++++++++ooo #########",
"############ ooooooooooooooooooooooo  ##########",
"############ ooooooooooooooooooooo  ############",
"#############                     ##############",
"######################     #####################",
"###################### ... #####################",
"###################### O.. #####################",
"###################### OX. #####################",
"###################### OX. #####################",
"###################### OX. #####################",
"###################### OX. #####################",
"###################### OX. #####################",
"###################### OX. #####################",
"###################### OX. #####################",
"###################### OX. #####################",
"###################### OX. #####################",
"###################### OX. #####################",
"###################### OX. #####################",
"###################### OX. #####################",
"###################### OX. #####################",
"###################### OX. #####################",
"###################### OX. #####################",
"###################### OX. #####################",
"###################### OX. #####################",
"###################### OX. #####################",
"###################### OX. #####################",
"###################### OX. #####################"
};
