/* XPM */
static char *result[] = {
/* columns rows colors chars-per-pixel */
"48 48 4 1 ",
"  c #3F3F74",
". c #A08791",
"X c #CBA8AF",
"o c None",
/* pixels */
"oooooooooooooooooooooooooooooooooooooooooooooooo",
"oooooooooooooooooooooooooooooooooooooooooooooooo",
"oooooooooooooooooooooooooooooooooooooooooooooooo",
"oooooooooooooooooooooooooooooooooooooooooooooooo",
"oooooooooooooooooooooooooooooooooooooooooooooooo",
"oooooooooooooooooooooooooooooooooooooooooooooooo",
"oooooooooooooooooooooooooooooooooooooooooooooooo",
"oooooooooooooooooooooooooooooooooooooooooooooooo",
"oooooooooooooooooooooooooooooooooooooooooooooooo",
"oooooooooooooooooooooooooooooooooooooooooooooooo",
"oooooooooooooooooooooooooooooooooooooooooooooooo",
"oooooooooooooooooooooooooo      oooooooooooooooo",
"ooooooooooooooooooooooooo XXXXXX ooooooooooooooo",
"oooooooooooooooooooooooo X......X oooooooooooooo",
"ooooooooooooooooooooooo X........X ooooooooooooo",
"ooooooooooooooooooooooo ..........X oooooooooooo",
"ooooooooooooooooooooooo ...........X ooooooooooo",
"ooooooooooooooooooooooo ............X oooooooooo",
"ooooooooooooooooooooooo .............X ooooooooo",
"oooooooooooooooooooooo X.............. ooooooooo",
"oooooooooooooooooooooo ...............X oooooooo",
"oooooooooooooooooooooo ................ oooooooo",
"oooooooooooooooooooooo ................X ooooooo",
"oooooooooooooooooo  oo .....    ........ ooooooo",
"oooooooooooooooo  X  o  ... XXXX  ....   ooooooo",
"oooooooooooooo  XX.X     . X....XX    XX ooooooo",
"ooooooooooooo XX....X     X.......XXXX.. ooooooo",
"oooooooooooo X.......X   X.............. ooooooo",
"ooooooooooo X.........   ..............  ooooooo",
"oooooooooo X..........    ............   ooooooo",
"ooooooooo X..........      .........    oooooooo",
"ooooooooo .........         .....       oooooooo",
"oooooooo  .........                    ooooooooo",
"oooooooo   ......                     oooooooooo",
"oooooooo    ...       o              ooooooooooo",
"ooooooooo            ooo            oooooooooooo",
"oooooooooooooooooooooooooooooooooooooooooooooooo",
"oooooooooooooooooooooooooooooooooooooooooooooooo",
"oooooooooooooooooooooooooooooooooooooooooooooooo",
"oooooooooooooooooooooooooooooooooooooooooooooooo",
"oooooooooooooooooooooooooooooooooooooooooooooooo",
"oooooooooooooooooooooooooooooooooooooooooooooooo",
"oooooooooooooooooooooooooooooooooooooooooooooooo",
"oooooooooooooooooooooooooooooooooooooooooooooooo",
"oooooooooooooooooooooooooooooooooooooooooooooooo",
"oooooooooooooooooooooooooooooooooooooooooooooooo",
"oooooooooooooooooooooooooooooooooooooooooooooooo",
"oooooooooooooooooooooooooooooooooooooooooooooooo"
};
