/* XPM */
static char *result[] = {
/* columns rows colors chars-per-pixel */
"48 48 8 1 ",
"  c #3F3F74",
". c #8A4863",
"X c #B6676F",
"o c #DC8E7A",
"O c #43658A",
"+ c #4C8F8F",
"@ c #61CFB9",
"# c None",
/* pixels */
"################################################",
"################################################",
"###                           ##################",
"## @@@@@@@@@@@@@@@@@@@@@@@@@@@ #################",
"# O@+++++++++++++++++++++++++@O ################",
"# O+++++++++++++++++++++++++++O ################",
"# O+++++++++++++++++++++++++++O ################",
"# O+++++++++++++++++++++++++++O ################",
"# O+++++++++++++++++++++++++++O ################",
"# O+++++++++++++++++++++++++++O ################",
"# O+++++++++++++++++++++++++++O ################",
"# O+++++++++++++++++++++++++++O ################",
"# O+++++++++++++++++++++++++++O ################",
"# O+++++++++++++++++++++++++++O ################",
"# O+++++++++++++++++++++++++++O ################",
"# O+++++++++++++++++++++++++++O ################",
"# O+++++++++++++++++++++++++++O ################",
"# O+++++++++++++++++++++++++++O ################",
"# O+++++++++++++++++++++++++++O              ###",
"# O@+++++++++++++++++++++++++@O               ##",
"# OO@+++++++++++++++++++++++@OO                #",
"# OOOOOOOOOOOOOOOOOOOOOOOOOOOOO                #",
"## OOOOOOOOOOOOOOOOOOOOOOOOOOO                 #",
"###                                            #",
"##############    ##                           #",
"############## ...    XX.                      #",
"############### XXooXXXX..                     #",
"################  XXXXXX..                     #",
"##################   oXX..                     #",
"#################### oXX..                     #",
"#################### oXX..                     #",
"#################### oXX..                     #",
"#################### oXX..                     #",
"#################### oXX..                    ##",
"#################### oXX..                   ###",
"#################### oXX.. ##   ################",
"#################### oXX.. #    ################",
"#################### oXX..     #################",
"#################### oXX..    ##################",
"#################### oXX..   ###################",
"#################### oXX.. #####################",
"#################### oXX.. #####################",
"#################### oXX.. #####################",
"#################### .XX.. #####################",
"####################  ...  #####################",
"####################       #####################",
"####################       #####################",
"################################################"
};
