/* XPM */
static char *result[] = {
/* columns rows colors chars-per-pixel */
"48 48 8 1 ",
"  c #151327",
". c #663131",
"X c #B6614B",
"o c #F2824F",
"O c #9C5BB6",
"+ c #D77BBA",
"@ c #FFA7B9",
"# c None",
/* pixels */
"################################################",
"################################################",
"################################################",
"################################################",
"################################################",
"################################################",
"################################################",
"################################################",
"##################          ####################",
"################# ++++++++++ ###################",
"################ +@@+++++++++ ##################",
"################ +@@+++++++++ ##################",
"############### ++++@++++++     ################",
"############### ++++++++++ +++++ ###############",
"############### +++++++++ +@@++++ ##############",
"############### ++++++++ ++@@+++++ #############",
"############### +++++++ O+++++++++O ############",
"############### +++++++ O+++++++++O ############",
"############### O++++++ O+++++++++O ############",
"############### OO+++++ O+++++++++O ############",
"################ OOOOOO OO+++++++OO ############",
"################ OOOOOO OOOOOOOOOOO ############",
"################# OOOOOO OOOOOOOOO #############",
"#############      OOOO   OOOOOOO     ##########",
"############ ++++++               ++++ #########",
"########### ++@+++++    ..   #   ++@+++ ########",
"########### ++++++++    oX  ##   ++++++ ########",
"########### ++++++++ #  oX ### . O++++O ########",
"########### ++++++++ ## oX ## o. OOOOOO ########",
"########### O++++++O ## oXX  oX # OOOO #########",
"########### OOOOOOOO ## oXXXXX ###    ##########",
"############ OOOOOO ### oX.   ##################",
"#############          ooX #####################",
"################# XXXXXXXX #####################",
"##################     .XX #####################",
"####################### .. #####################",
"####################### .. #####################",
"################################################",
"################################################",
"################################################",
"################################################",
"################################################",
"################################################",
"################################################",
"################################################",
"################################################",
"################################################",
"################################################"
};
